<mxfile host="app.diagrams.net" modified="2023-06-06T11:52:19.721Z" agent="Mozilla/5.0 (Windows NT 10.0; Win64; x64) AppleWebKit/537.36 (KHTML, like Gecko) Chrome/114.0.0.0 Safari/537.36" etag="zvIHj1PL1yMmjjHNfYGO" version="21.3.7" type="device">
  <diagram name="Page-1" id="3Zs174orFhYTayVIomm9">
    <mxGraphModel dx="2163" dy="1816" grid="1" gridSize="10" guides="1" tooltips="1" connect="1" arrows="1" fold="1" page="1" pageScale="1" pageWidth="850" pageHeight="1100" math="0" shadow="0">
      <root>
        <mxCell id="0" />
        <mxCell id="1" parent="0" />
        <mxCell id="i0LrLsmGgSVkw_2klA8G-1" value="user" style="rounded=0;whiteSpace=wrap;html=1;" parent="1" vertex="1">
          <mxGeometry x="210" y="205" width="120" height="60" as="geometry" />
        </mxCell>
        <mxCell id="i0LrLsmGgSVkw_2klA8G-2" value="d" style="ellipse;whiteSpace=wrap;html=1;aspect=fixed;" parent="1" vertex="1">
          <mxGeometry x="250" y="345" width="40" height="40" as="geometry" />
        </mxCell>
        <mxCell id="i0LrLsmGgSVkw_2klA8G-3" value="manager" style="rounded=0;whiteSpace=wrap;html=1;" parent="1" vertex="1">
          <mxGeometry x="40" y="425" width="110" height="50" as="geometry" />
        </mxCell>
        <mxCell id="i0LrLsmGgSVkw_2klA8G-4" value="regular" style="rounded=0;whiteSpace=wrap;html=1;" parent="1" vertex="1">
          <mxGeometry x="205" y="495" width="110" height="50" as="geometry" />
        </mxCell>
        <mxCell id="i0LrLsmGgSVkw_2klA8G-5" value="administrator&amp;nbsp;" style="rounded=0;whiteSpace=wrap;html=1;" parent="1" vertex="1">
          <mxGeometry x="390" y="425" width="100" height="50" as="geometry" />
        </mxCell>
        <mxCell id="i0LrLsmGgSVkw_2klA8G-7" value="" style="endArrow=none;html=1;rounded=0;entryX=0.5;entryY=1;entryDx=0;entryDy=0;" parent="1" target="i0LrLsmGgSVkw_2klA8G-1" edge="1">
          <mxGeometry width="50" height="50" relative="1" as="geometry">
            <mxPoint x="270" y="345" as="sourcePoint" />
            <mxPoint x="320" y="295" as="targetPoint" />
          </mxGeometry>
        </mxCell>
        <mxCell id="i0LrLsmGgSVkw_2klA8G-8" value="" style="endArrow=none;html=1;rounded=0;entryX=0.5;entryY=1;entryDx=0;entryDy=0;exitX=0.5;exitY=0;exitDx=0;exitDy=0;" parent="1" source="i0LrLsmGgSVkw_2klA8G-5" edge="1">
          <mxGeometry width="50" height="50" relative="1" as="geometry">
            <mxPoint x="290" y="465" as="sourcePoint" />
            <mxPoint x="290" y="375" as="targetPoint" />
          </mxGeometry>
        </mxCell>
        <mxCell id="i0LrLsmGgSVkw_2klA8G-9" value="" style="endArrow=none;html=1;rounded=0;entryX=0.5;entryY=1;entryDx=0;entryDy=0;exitX=0.587;exitY=-0.012;exitDx=0;exitDy=0;exitPerimeter=0;" parent="1" source="i0LrLsmGgSVkw_2klA8G-4" edge="1">
          <mxGeometry width="50" height="50" relative="1" as="geometry">
            <mxPoint x="269.5" y="475" as="sourcePoint" />
            <mxPoint x="269.5" y="385" as="targetPoint" />
          </mxGeometry>
        </mxCell>
        <mxCell id="i0LrLsmGgSVkw_2klA8G-10" value="" style="endArrow=none;html=1;rounded=0;entryX=0.5;entryY=1;entryDx=0;entryDy=0;exitX=0.5;exitY=0;exitDx=0;exitDy=0;" parent="1" source="i0LrLsmGgSVkw_2klA8G-3" edge="1">
          <mxGeometry width="50" height="50" relative="1" as="geometry">
            <mxPoint x="250" y="455" as="sourcePoint" />
            <mxPoint x="250" y="365" as="targetPoint" />
          </mxGeometry>
        </mxCell>
        <mxCell id="i0LrLsmGgSVkw_2klA8G-11" value="&lt;b&gt;id&lt;/b&gt;" style="ellipse;whiteSpace=wrap;html=1;" parent="1" vertex="1">
          <mxGeometry x="-80" y="115" width="90" height="60" as="geometry" />
        </mxCell>
        <mxCell id="i0LrLsmGgSVkw_2klA8G-12" value="&lt;b&gt;voornaam&lt;/b&gt;" style="ellipse;whiteSpace=wrap;html=1;" parent="1" vertex="1">
          <mxGeometry x="-20" y="55" width="90" height="60" as="geometry" />
        </mxCell>
        <mxCell id="i0LrLsmGgSVkw_2klA8G-13" value="&lt;b&gt;&lt;font style=&quot;font-size: 10px;&quot;&gt;tussenvoegsels&lt;/font&gt;&lt;/b&gt;" style="ellipse;whiteSpace=wrap;html=1;" parent="1" vertex="1">
          <mxGeometry x="50" y="5" width="90" height="60" as="geometry" />
        </mxCell>
        <mxCell id="i0LrLsmGgSVkw_2klA8G-14" value="&lt;b&gt;&lt;font style=&quot;font-size: 11px;&quot;&gt;achternaam&lt;/font&gt;&lt;/b&gt;" style="ellipse;whiteSpace=wrap;html=1;" parent="1" vertex="1">
          <mxGeometry x="150" y="-15" width="90" height="60" as="geometry" />
        </mxCell>
        <mxCell id="i0LrLsmGgSVkw_2klA8G-15" value="&lt;b&gt;&lt;font style=&quot;font-size: 12px;&quot;&gt;geslacht&lt;/font&gt;&lt;/b&gt;" style="ellipse;whiteSpace=wrap;html=1;" parent="1" vertex="1">
          <mxGeometry x="250" y="-25" width="90" height="60" as="geometry" />
        </mxCell>
        <mxCell id="i0LrLsmGgSVkw_2klA8G-19" value="&lt;b&gt;email&lt;/b&gt;" style="ellipse;whiteSpace=wrap;html=1;" parent="1" vertex="1">
          <mxGeometry x="355" y="-15" width="90" height="60" as="geometry" />
        </mxCell>
        <mxCell id="i0LrLsmGgSVkw_2klA8G-20" value="&lt;b&gt;paswoord&lt;/b&gt;&lt;span style=&quot;font-size:12.0pt;font-family:&amp;quot;Calibri&amp;quot;,sans-serif;mso-ascii-theme-font:&lt;br/&gt;minor-latin;mso-fareast-font-family:Calibri;mso-fareast-theme-font:minor-latin;&lt;br/&gt;mso-hansi-theme-font:minor-latin;mso-bidi-font-family:Arial;mso-bidi-theme-font:&lt;br/&gt;minor-bidi;mso-ansi-language:NL;mso-fareast-language:EN-US;mso-bidi-language:&lt;br/&gt;AR-SA&quot; lang=&quot;NL&quot;&gt;&lt;/span&gt;" style="ellipse;whiteSpace=wrap;html=1;" parent="1" vertex="1">
          <mxGeometry x="-90" y="185" width="90" height="60" as="geometry" />
        </mxCell>
        <mxCell id="i0LrLsmGgSVkw_2klA8G-21" value="&lt;b&gt;&lt;font style=&quot;font-size: 10px;&quot;&gt;gebruikersnaam&lt;/font&gt;&lt;/b&gt;&lt;span style=&quot;font-size:12.0pt;font-family:&amp;quot;Calibri&amp;quot;,sans-serif;mso-ascii-theme-font:&lt;br/&gt;minor-latin;mso-fareast-font-family:Calibri;mso-fareast-theme-font:minor-latin;&lt;br/&gt;mso-hansi-theme-font:minor-latin;mso-bidi-font-family:Arial;mso-bidi-theme-font:&lt;br/&gt;minor-bidi;mso-ansi-language:NL;mso-fareast-language:EN-US;mso-bidi-language:&lt;br/&gt;AR-SA&quot; lang=&quot;NL&quot;&gt;&lt;/span&gt;" style="ellipse;whiteSpace=wrap;html=1;" parent="1" vertex="1">
          <mxGeometry x="440" y="45" width="90" height="60" as="geometry" />
        </mxCell>
        <mxCell id="i0LrLsmGgSVkw_2klA8G-24" value="&lt;b&gt;&lt;font style=&quot;font-size: 10px;&quot;&gt;telefoonnummer&lt;/font&gt;&lt;/b&gt;&lt;span style=&quot;font-size:12.0pt;font-family:&amp;quot;Calibri&amp;quot;,sans-serif;mso-ascii-theme-font:&lt;br/&gt;minor-latin;mso-fareast-font-family:Calibri;mso-fareast-theme-font:minor-latin;&lt;br/&gt;mso-hansi-theme-font:minor-latin;mso-bidi-font-family:Arial;mso-bidi-theme-font:&lt;br/&gt;minor-bidi;mso-ansi-language:NL;mso-fareast-language:EN-US;mso-bidi-language:&lt;br/&gt;AR-SA&quot; lang=&quot;NL&quot;&gt;&lt;/span&gt;" style="ellipse;whiteSpace=wrap;html=1;" parent="1" vertex="1">
          <mxGeometry x="890" y="320" width="90" height="60" as="geometry" />
        </mxCell>
        <mxCell id="i0LrLsmGgSVkw_2klA8G-25" value="&lt;b&gt;&lt;font style=&quot;font-size: 11px;&quot;&gt;mobielnummer&lt;/font&gt;&lt;/b&gt;" style="ellipse;whiteSpace=wrap;html=1;" parent="1" vertex="1">
          <mxGeometry x="730" y="70" width="90" height="60" as="geometry" />
        </mxCell>
        <mxCell id="i0LrLsmGgSVkw_2klA8G-26" value="&lt;b&gt;&lt;font style=&quot;font-size: 11px;&quot;&gt;register_datum&lt;/font&gt;&lt;/b&gt;" style="ellipse;whiteSpace=wrap;html=1;" parent="1" vertex="1">
          <mxGeometry x="215" y="620" width="90" height="60" as="geometry" />
        </mxCell>
        <mxCell id="i0LrLsmGgSVkw_2klA8G-27" value="&lt;b&gt;&lt;font style=&quot;font-size: 11px;&quot;&gt;afdeling&lt;/font&gt;&lt;/b&gt;" style="ellipse;whiteSpace=wrap;html=1;" parent="1" vertex="1">
          <mxGeometry x="-75" y="515" width="90" height="60" as="geometry" />
        </mxCell>
        <mxCell id="i0LrLsmGgSVkw_2klA8G-28" value="&lt;b&gt;&lt;font style=&quot;font-size: 11px;&quot;&gt;in_dienst&lt;/font&gt;&lt;/b&gt;" style="ellipse;whiteSpace=wrap;html=1;" parent="1" vertex="1">
          <mxGeometry x="450" y="560" width="90" height="60" as="geometry" />
        </mxCell>
        <mxCell id="i0LrLsmGgSVkw_2klA8G-29" value="&lt;b&gt;&lt;font style=&quot;font-size: 11px;&quot;&gt;aantal_mensen&lt;/font&gt;&lt;/b&gt;" style="ellipse;whiteSpace=wrap;html=1;" parent="1" vertex="1">
          <mxGeometry x="50" y="530" width="90" height="60" as="geometry" />
        </mxCell>
        <mxCell id="i0LrLsmGgSVkw_2klA8G-31" value="adress" style="rounded=0;whiteSpace=wrap;html=1;" parent="1" vertex="1">
          <mxGeometry x="800" y="210" width="120" height="60" as="geometry" />
        </mxCell>
        <mxCell id="i0LrLsmGgSVkw_2klA8G-32" value="&lt;b&gt;plaats&lt;/b&gt;" style="ellipse;whiteSpace=wrap;html=1;" parent="1" vertex="1">
          <mxGeometry x="1010" y="210" width="90" height="60" as="geometry" />
        </mxCell>
        <mxCell id="i0LrLsmGgSVkw_2klA8G-33" value="&lt;b&gt;postcode&lt;/b&gt;" style="ellipse;whiteSpace=wrap;html=1;" parent="1" vertex="1">
          <mxGeometry x="1000" y="140" width="90" height="60" as="geometry" />
        </mxCell>
        <mxCell id="i0LrLsmGgSVkw_2klA8G-34" value="&lt;b&gt;land&lt;/b&gt;" style="ellipse;whiteSpace=wrap;html=1;" parent="1" vertex="1">
          <mxGeometry x="980" y="280" width="90" height="60" as="geometry" />
        </mxCell>
        <mxCell id="i0LrLsmGgSVkw_2klA8G-35" value="&lt;b&gt;huisnummer&lt;/b&gt;" style="ellipse;whiteSpace=wrap;html=1;" parent="1" vertex="1">
          <mxGeometry x="930" y="80" width="90" height="60" as="geometry" />
        </mxCell>
        <mxCell id="i0LrLsmGgSVkw_2klA8G-36" value="&lt;b&gt;straat&lt;/b&gt;" style="ellipse;whiteSpace=wrap;html=1;" parent="1" vertex="1">
          <mxGeometry x="830" y="70" width="90" height="60" as="geometry" />
        </mxCell>
        <mxCell id="i0LrLsmGgSVkw_2klA8G-38" value="&lt;b&gt;&lt;font style=&quot;font-size: 10px;&quot;&gt;notitie&lt;/font&gt;&lt;/b&gt;&lt;span style=&quot;font-size:12.0pt;font-family:&amp;quot;Calibri&amp;quot;,sans-serif;mso-ascii-theme-font:&lt;br/&gt;minor-latin;mso-fareast-font-family:Calibri;mso-fareast-theme-font:minor-latin;&lt;br/&gt;mso-hansi-theme-font:minor-latin;mso-bidi-font-family:Arial;mso-bidi-theme-font:&lt;br/&gt;minor-bidi;mso-ansi-language:NL;mso-fareast-language:EN-US;mso-bidi-language:&lt;br/&gt;AR-SA&quot; lang=&quot;NL&quot;&gt;&lt;/span&gt;" style="ellipse;whiteSpace=wrap;html=1;" parent="1" vertex="1">
          <mxGeometry x="790" y="320" width="90" height="60" as="geometry" />
        </mxCell>
        <mxCell id="i0LrLsmGgSVkw_2klA8G-39" value="&lt;b&gt;&lt;font style=&quot;font-size: 10px;&quot;&gt;toevoegdatum&lt;/font&gt;&lt;/b&gt;&lt;span style=&quot;font-size:12.0pt;font-family:&amp;quot;Calibri&amp;quot;,sans-serif;mso-ascii-theme-font:&lt;br/&gt;minor-latin;mso-fareast-font-family:Calibri;mso-fareast-theme-font:minor-latin;&lt;br/&gt;mso-hansi-theme-font:minor-latin;mso-bidi-font-family:Arial;mso-bidi-theme-font:&lt;br/&gt;minor-bidi;mso-ansi-language:NL;mso-fareast-language:EN-US;mso-bidi-language:&lt;br/&gt;AR-SA&quot; lang=&quot;NL&quot;&gt;&lt;/span&gt;" style="ellipse;whiteSpace=wrap;html=1;" parent="1" vertex="1">
          <mxGeometry x="690" y="290" width="90" height="60" as="geometry" />
        </mxCell>
        <mxCell id="i0LrLsmGgSVkw_2klA8G-40" value="aantal_gebruikers" style="ellipse;whiteSpace=wrap;html=1;" parent="1" vertex="1">
          <mxGeometry x="-75" y="250" width="100" height="70" as="geometry" />
        </mxCell>
        <mxCell id="i0LrLsmGgSVkw_2klA8G-41" value="aantal_addressen" style="ellipse;whiteSpace=wrap;html=1;" parent="1" vertex="1">
          <mxGeometry x="650" y="120" width="100" height="70" as="geometry" />
        </mxCell>
        <mxCell id="i0LrLsmGgSVkw_2klA8G-42" value="" style="endArrow=none;html=1;rounded=0;entryX=0.5;entryY=1;entryDx=0;entryDy=0;exitX=0;exitY=0.5;exitDx=0;exitDy=0;" parent="1" source="i0LrLsmGgSVkw_2klA8G-1" edge="1">
          <mxGeometry width="50" height="50" relative="1" as="geometry">
            <mxPoint y="295" as="sourcePoint" />
            <mxPoint y="215" as="targetPoint" />
          </mxGeometry>
        </mxCell>
        <mxCell id="i0LrLsmGgSVkw_2klA8G-43" value="" style="endArrow=none;html=1;rounded=0;entryX=0.5;entryY=1;entryDx=0;entryDy=0;" parent="1" source="i0LrLsmGgSVkw_2klA8G-82" edge="1">
          <mxGeometry width="50" height="50" relative="1" as="geometry">
            <mxPoint x="520" y="240" as="sourcePoint" />
            <mxPoint x="330" y="240" as="targetPoint" />
          </mxGeometry>
        </mxCell>
        <mxCell id="i0LrLsmGgSVkw_2klA8G-44" value="" style="endArrow=none;html=1;rounded=0;entryX=0;entryY=0.75;entryDx=0;entryDy=0;exitX=1.035;exitY=0.299;exitDx=0;exitDy=0;exitPerimeter=0;" parent="1" source="i0LrLsmGgSVkw_2klA8G-40" target="i0LrLsmGgSVkw_2klA8G-1" edge="1">
          <mxGeometry width="50" height="50" relative="1" as="geometry">
            <mxPoint x="470" y="180" as="sourcePoint" />
            <mxPoint x="330" y="255" as="targetPoint" />
          </mxGeometry>
        </mxCell>
        <mxCell id="i0LrLsmGgSVkw_2klA8G-45" value="" style="endArrow=none;html=1;rounded=0;entryX=1;entryY=0;entryDx=0;entryDy=0;exitX=0;exitY=1;exitDx=0;exitDy=0;" parent="1" source="i0LrLsmGgSVkw_2klA8G-21" target="i0LrLsmGgSVkw_2klA8G-1" edge="1">
          <mxGeometry width="50" height="50" relative="1" as="geometry">
            <mxPoint x="490" y="94.99999999999977" as="sourcePoint" />
            <mxPoint x="330" y="235" as="targetPoint" />
          </mxGeometry>
        </mxCell>
        <mxCell id="i0LrLsmGgSVkw_2klA8G-46" value="" style="endArrow=none;html=1;rounded=0;entryX=0.268;entryY=1.021;entryDx=0;entryDy=0;entryPerimeter=0;exitX=0.837;exitY=0.012;exitDx=0;exitDy=0;exitPerimeter=0;" parent="1" source="i0LrLsmGgSVkw_2klA8G-1" target="i0LrLsmGgSVkw_2klA8G-19" edge="1">
          <mxGeometry width="50" height="50" relative="1" as="geometry">
            <mxPoint x="320" y="200" as="sourcePoint" />
            <mxPoint x="480" y="145" as="targetPoint" />
          </mxGeometry>
        </mxCell>
        <mxCell id="i0LrLsmGgSVkw_2klA8G-48" value="" style="endArrow=none;html=1;rounded=0;exitX=0.75;exitY=0;exitDx=0;exitDy=0;" parent="1" source="i0LrLsmGgSVkw_2klA8G-1" target="i0LrLsmGgSVkw_2klA8G-15" edge="1">
          <mxGeometry width="50" height="50" relative="1" as="geometry">
            <mxPoint x="540" y="125" as="sourcePoint" />
            <mxPoint x="330" y="105" as="targetPoint" />
          </mxGeometry>
        </mxCell>
        <mxCell id="i0LrLsmGgSVkw_2klA8G-49" value="" style="endArrow=none;html=1;rounded=0;entryX=0.5;entryY=1;entryDx=0;entryDy=0;exitX=0.5;exitY=0;exitDx=0;exitDy=0;" parent="1" source="i0LrLsmGgSVkw_2klA8G-1" target="i0LrLsmGgSVkw_2klA8G-14" edge="1">
          <mxGeometry width="50" height="50" relative="1" as="geometry">
            <mxPoint x="440" y="115" as="sourcePoint" />
            <mxPoint x="230" y="95" as="targetPoint" />
          </mxGeometry>
        </mxCell>
        <mxCell id="i0LrLsmGgSVkw_2klA8G-50" value="" style="endArrow=none;html=1;rounded=0;entryX=1;entryY=1;entryDx=0;entryDy=0;exitX=0.25;exitY=0;exitDx=0;exitDy=0;" parent="1" source="i0LrLsmGgSVkw_2klA8G-1" target="i0LrLsmGgSVkw_2klA8G-13" edge="1">
          <mxGeometry width="50" height="50" relative="1" as="geometry">
            <mxPoint x="360" y="125" as="sourcePoint" />
            <mxPoint x="150" y="105" as="targetPoint" />
          </mxGeometry>
        </mxCell>
        <mxCell id="i0LrLsmGgSVkw_2klA8G-51" value="" style="endArrow=none;html=1;rounded=0;entryX=0.5;entryY=1;entryDx=0;entryDy=0;exitX=0.128;exitY=0.005;exitDx=0;exitDy=0;exitPerimeter=0;" parent="1" source="i0LrLsmGgSVkw_2klA8G-1" edge="1">
          <mxGeometry width="50" height="50" relative="1" as="geometry">
            <mxPoint x="270" y="125" as="sourcePoint" />
            <mxPoint x="60" y="105" as="targetPoint" />
          </mxGeometry>
        </mxCell>
        <mxCell id="i0LrLsmGgSVkw_2klA8G-52" value="" style="endArrow=none;html=1;rounded=0;entryX=0.5;entryY=1;entryDx=0;entryDy=0;exitX=0;exitY=0.25;exitDx=0;exitDy=0;" parent="1" source="i0LrLsmGgSVkw_2klA8G-1" edge="1">
          <mxGeometry width="50" height="50" relative="1" as="geometry">
            <mxPoint x="220" y="165" as="sourcePoint" />
            <mxPoint x="10" y="145" as="targetPoint" />
          </mxGeometry>
        </mxCell>
        <mxCell id="i0LrLsmGgSVkw_2klA8G-55" value="heeft" style="rhombus;whiteSpace=wrap;html=1;" parent="1" vertex="1">
          <mxGeometry x="520" y="200" width="100" height="80" as="geometry" />
        </mxCell>
        <mxCell id="i0LrLsmGgSVkw_2klA8G-56" value="" style="endArrow=none;html=1;rounded=0;entryX=1;entryY=0.5;entryDx=0;entryDy=0;exitX=0;exitY=0.5;exitDx=0;exitDy=0;" parent="1" source="i0LrLsmGgSVkw_2klA8G-31" target="i0LrLsmGgSVkw_2klA8G-55" edge="1">
          <mxGeometry width="50" height="50" relative="1" as="geometry">
            <mxPoint x="810" y="239.23" as="sourcePoint" />
            <mxPoint x="620" y="239.23" as="targetPoint" />
          </mxGeometry>
        </mxCell>
        <mxCell id="i0LrLsmGgSVkw_2klA8G-59" value="" style="endArrow=none;html=1;rounded=0;exitX=0;exitY=0.25;exitDx=0;exitDy=0;" parent="1" source="i0LrLsmGgSVkw_2klA8G-31" target="i0LrLsmGgSVkw_2klA8G-41" edge="1">
          <mxGeometry width="50" height="50" relative="1" as="geometry">
            <mxPoint x="610" y="370" as="sourcePoint" />
            <mxPoint x="660" y="320" as="targetPoint" />
          </mxGeometry>
        </mxCell>
        <mxCell id="i0LrLsmGgSVkw_2klA8G-69" value="" style="endArrow=none;html=1;rounded=0;entryX=0.5;entryY=1;entryDx=0;entryDy=0;exitX=0;exitY=0.5;exitDx=0;exitDy=0;" parent="1" source="i0LrLsmGgSVkw_2klA8G-32" edge="1">
          <mxGeometry width="50" height="50" relative="1" as="geometry">
            <mxPoint x="1110" y="239.23" as="sourcePoint" />
            <mxPoint x="920" y="239.23" as="targetPoint" />
          </mxGeometry>
        </mxCell>
        <mxCell id="i0LrLsmGgSVkw_2klA8G-70" value="" style="endArrow=none;html=1;rounded=0;entryX=0.5;entryY=1;entryDx=0;entryDy=0;exitX=0;exitY=1;exitDx=0;exitDy=0;" parent="1" source="i0LrLsmGgSVkw_2klA8G-33" edge="1">
          <mxGeometry width="50" height="50" relative="1" as="geometry">
            <mxPoint x="1110" y="220" as="sourcePoint" />
            <mxPoint x="920" y="220" as="targetPoint" />
          </mxGeometry>
        </mxCell>
        <mxCell id="i0LrLsmGgSVkw_2klA8G-71" value="" style="endArrow=none;html=1;rounded=0;entryX=0.5;entryY=1;entryDx=0;entryDy=0;exitX=0.5;exitY=1;exitDx=0;exitDy=0;" parent="1" source="i0LrLsmGgSVkw_2klA8G-35" edge="1">
          <mxGeometry width="50" height="50" relative="1" as="geometry">
            <mxPoint x="1090" y="210" as="sourcePoint" />
            <mxPoint x="900" y="210" as="targetPoint" />
          </mxGeometry>
        </mxCell>
        <mxCell id="i0LrLsmGgSVkw_2klA8G-72" value="" style="endArrow=none;html=1;rounded=0;entryX=0.5;entryY=1;entryDx=0;entryDy=0;exitX=0.5;exitY=1;exitDx=0;exitDy=0;" parent="1" source="i0LrLsmGgSVkw_2klA8G-31" edge="1">
          <mxGeometry width="50" height="50" relative="1" as="geometry">
            <mxPoint x="1030" y="320" as="sourcePoint" />
            <mxPoint x="840" y="320" as="targetPoint" />
          </mxGeometry>
        </mxCell>
        <mxCell id="i0LrLsmGgSVkw_2klA8G-73" value="" style="endArrow=none;html=1;rounded=0;entryX=0.5;entryY=1;entryDx=0;entryDy=0;exitX=0;exitY=1;exitDx=0;exitDy=0;" parent="1" source="i0LrLsmGgSVkw_2klA8G-31" edge="1">
          <mxGeometry width="50" height="50" relative="1" as="geometry">
            <mxPoint x="940" y="290" as="sourcePoint" />
            <mxPoint x="750" y="290" as="targetPoint" />
          </mxGeometry>
        </mxCell>
        <mxCell id="i0LrLsmGgSVkw_2klA8G-74" value="" style="endArrow=none;html=1;rounded=0;entryX=0.5;entryY=1;entryDx=0;entryDy=0;" parent="1" source="i0LrLsmGgSVkw_2klA8G-31" edge="1">
          <mxGeometry width="50" height="50" relative="1" as="geometry">
            <mxPoint x="1060" y="130" as="sourcePoint" />
            <mxPoint x="870" y="130" as="targetPoint" />
          </mxGeometry>
        </mxCell>
        <mxCell id="i0LrLsmGgSVkw_2klA8G-75" value="" style="endArrow=none;html=1;rounded=0;entryX=0.5;entryY=1;entryDx=0;entryDy=0;exitX=0.25;exitY=0;exitDx=0;exitDy=0;" parent="1" source="i0LrLsmGgSVkw_2klA8G-31" edge="1">
          <mxGeometry width="50" height="50" relative="1" as="geometry">
            <mxPoint x="840" y="220" as="sourcePoint" />
            <mxPoint x="790" y="130" as="targetPoint" />
          </mxGeometry>
        </mxCell>
        <mxCell id="i0LrLsmGgSVkw_2klA8G-76" value="" style="endArrow=none;html=1;rounded=0;entryX=0.669;entryY=0.995;entryDx=0;entryDy=0;exitX=0.5;exitY=0;exitDx=0;exitDy=0;entryPerimeter=0;" parent="1" source="i0LrLsmGgSVkw_2klA8G-24" target="i0LrLsmGgSVkw_2klA8G-31" edge="1">
          <mxGeometry width="50" height="50" relative="1" as="geometry">
            <mxPoint x="1070" y="284.23" as="sourcePoint" />
            <mxPoint x="880" y="284.23" as="targetPoint" />
          </mxGeometry>
        </mxCell>
        <mxCell id="i0LrLsmGgSVkw_2klA8G-77" value="" style="endArrow=none;html=1;rounded=0;entryX=0.5;entryY=1;entryDx=0;entryDy=0;exitX=0.5;exitY=0;exitDx=0;exitDy=0;" parent="1" source="i0LrLsmGgSVkw_2klA8G-26" target="i0LrLsmGgSVkw_2klA8G-4" edge="1">
          <mxGeometry width="50" height="50" relative="1" as="geometry">
            <mxPoint x="680" y="449.23" as="sourcePoint" />
            <mxPoint x="490" y="449.23" as="targetPoint" />
          </mxGeometry>
        </mxCell>
        <mxCell id="i0LrLsmGgSVkw_2klA8G-78" value="" style="endArrow=none;html=1;rounded=0;exitX=0.25;exitY=1;exitDx=0;exitDy=0;entryX=0.678;entryY=0.051;entryDx=0;entryDy=0;entryPerimeter=0;" parent="1" source="i0LrLsmGgSVkw_2klA8G-3" target="i0LrLsmGgSVkw_2klA8G-29" edge="1">
          <mxGeometry width="50" height="50" relative="1" as="geometry">
            <mxPoint x="82.5" y="475" as="sourcePoint" />
            <mxPoint x="130" y="510" as="targetPoint" />
          </mxGeometry>
        </mxCell>
        <mxCell id="i0LrLsmGgSVkw_2klA8G-79" value="" style="endArrow=none;html=1;rounded=0;entryX=0.5;entryY=1;entryDx=0;entryDy=0;exitX=0;exitY=1;exitDx=0;exitDy=0;" parent="1" source="i0LrLsmGgSVkw_2klA8G-3" edge="1">
          <mxGeometry width="50" height="50" relative="1" as="geometry">
            <mxPoint x="55" y="475" as="sourcePoint" />
            <mxPoint x="-25" y="515" as="targetPoint" />
          </mxGeometry>
        </mxCell>
        <mxCell id="i0LrLsmGgSVkw_2klA8G-80" value="" style="endArrow=none;html=1;rounded=0;entryX=0.5;entryY=1;entryDx=0;entryDy=0;exitX=0.632;exitY=0.98;exitDx=0;exitDy=0;exitPerimeter=0;" parent="1" source="i0LrLsmGgSVkw_2klA8G-5" edge="1">
          <mxGeometry width="50" height="50" relative="1" as="geometry">
            <mxPoint x="550" y="515.77" as="sourcePoint" />
            <mxPoint x="482.5" y="560" as="targetPoint" />
          </mxGeometry>
        </mxCell>
        <mxCell id="i0LrLsmGgSVkw_2klA8G-81" value="" style="endArrow=none;html=1;rounded=0;entryX=1;entryY=0.75;entryDx=0;entryDy=0;" parent="1" source="i0LrLsmGgSVkw_2klA8G-34" target="i0LrLsmGgSVkw_2klA8G-31" edge="1">
          <mxGeometry width="50" height="50" relative="1" as="geometry">
            <mxPoint x="1110" y="260" as="sourcePoint" />
            <mxPoint x="920" y="260" as="targetPoint" />
          </mxGeometry>
        </mxCell>
        <mxCell id="i0LrLsmGgSVkw_2klA8G-83" value="" style="endArrow=none;html=1;rounded=0;entryX=0;entryY=0.5;entryDx=0;entryDy=0;" parent="1" target="i0LrLsmGgSVkw_2klA8G-82" edge="1">
          <mxGeometry width="50" height="50" relative="1" as="geometry">
            <mxPoint x="520" y="240" as="sourcePoint" />
            <mxPoint x="330" y="240" as="targetPoint" />
          </mxGeometry>
        </mxCell>
        <mxCell id="i0LrLsmGgSVkw_2klA8G-82" value="" style="ellipse;whiteSpace=wrap;html=1;aspect=fixed;" parent="1" vertex="1">
          <mxGeometry x="330" y="225" width="25" height="25" as="geometry" />
        </mxCell>
      </root>
    </mxGraphModel>
  </diagram>
</mxfile>
